<svg xmlns="http://www.w3.org/2000/svg" height="800" width="1200" viewBox="-149.9946 -47.375 1299.9532 284.25"><path d="M974.358 35.165l-27.52 77.503-25.67-77.503h-26.243l39.908 104.924-.319.699s-8.046 21.39-15.325 26.596c-5.619 2.792-18.709 2.602-23.69 2.285v19.804c8.685 0 29.054.571 35.567-3.555 8.237-5.141 10.089-7.3 15.708-18.534 6.13-12.251 53.19-132.219 53.19-132.219zM845.886 52.621V35.165h-24.584v105.686h24.584v-40.243c0-7.046.702-13.266 2.618-18.408 7.407-19.233 28.031-24.692 38.759-26.279l-8.43-20.185c-8.62 1.46-23.689 5.586-32.947 16.885zm-423.603 69.568c-18.9 0-32.118-15.17-32.118-34.213 0-18.598 13.026-33.832 30.905-33.832 12.388 0 20.305 5.396 27.84 13.203l15.261-16.186c-9.961-10.79-22.604-18.217-42.91-18.217-32.118 0-55.68 25.2-55.68 55.413 0 30.214 23.562 54.843 55.489 54.843 20.944 0 33.331-8.189 43.931-19.805l-14.878-14.408c-7.726 7.807-16.282 13.202-27.84 13.202zm377.31-54.08a73.846 73.846 0 013.192 25.009c-.064 1.142-.192 2.348-.32 3.49h-78.922c1.34 8.634 4.853 15.298 10.472 19.932 5.619 4.634 12.451 6.919 20.433 6.919 6.13 0 11.366-1.08 15.835-3.174 4.917-2.412 9.323-5.586 13.218-9.394l14.43 12.631a59.644 59.644 0 01-18.389 14.41c-7.088 3.617-15.644 5.395-25.541 5.395-7.407.063-14.75-1.333-21.646-4a52.903 52.903 0 01-17.496-11.234 52.335 52.335 0 01-11.685-17.33c-2.874-6.727-4.278-14.218-4.278-22.342v-.445c-.064-7.3 1.277-14.535 3.895-21.39 2.426-6.475 6.13-12.378 10.855-17.52 4.66-4.95 10.28-9.013 16.538-11.806 6.64-2.92 13.856-4.38 21.135-4.316 8.556 0 16.027 1.523 22.476 4.633 6.45 3.047 11.813 7.236 16.091 12.378a51.609 51.609 0 019.706 18.154zm-21.136 9.965c-.447-3.872-1.277-4.95-2.618-8.378-1.277-3.238-3.13-6.284-5.492-8.887-2.298-2.539-5.108-4.507-8.237-5.903a26.672 26.672 0 00-10.855-2.095c-7.598 0-13.856 2.54-18.837 7.68-4.916 5.142-7.981 9.331-9.067 17.583zM641.683 112.86l-28.862-77.694h-26.435l44.123 106.511h22.157l43.93-106.51H670.8zm-60.597-46.4c2.874 6.791 4.342 14.027 4.278 21.327v.38c0 7.49-1.468 14.537-4.342 21.201a55.04 55.04 0 01-12.004 17.52c-5.236 5.078-11.366 9.14-18.198 11.933-7.28 2.983-15.07 4.507-22.987 4.38-15.261.127-29.884-5.65-40.803-15.996-5.108-5.015-9.13-10.918-11.876-17.456-2.874-6.728-4.278-13.964-4.278-21.2v-.445c0-7.617 1.468-14.726 4.342-21.39a55.04 55.04 0 0112.004-17.52c10.855-10.6 25.605-16.44 40.994-16.313 8.3 0 15.9 1.396 22.86 4.316 13.6 5.523 24.391 16.06 30.01 29.262zm-20.305 21.708c0-4.697-.83-9.077-2.426-13.203-1.533-3.999-3.832-7.68-6.833-10.79a31.465 31.465 0 00-10.408-7.3c-4.214-1.841-8.748-2.793-13.345-2.73-4.853 0-9.323.889-13.282 2.73-4.022 1.84-7.407 4.189-10.28 7.236a30.38 30.38 0 00-6.513 10.6 36.7 36.7 0 00-2.235 13.14v.38c0 4.507.83 8.887 2.426 13.013 1.597 4.125 3.896 7.807 6.833 10.917 2.873 3.11 6.385 5.586 10.408 7.363 4.023 1.778 8.365 2.73 13.09 2.73 9.067.19 17.751-3.491 23.817-10.03 2.81-3.046 4.98-6.664 6.513-10.726 1.533-4.126 2.235-8.506 2.235-12.886zm-217.165.317a50.007 50.007 0 00-10.663-5.903c-3.96-1.587-7.854-2.983-11.813-4.19-3.001-1.015-6.002-2.03-9.067-2.983a47.893 47.893 0 01-7.727-3.11 19.022 19.022 0 01-5.427-3.808c-1.341-1.333-2.044-3.047-2.044-4.888v-.38c0-3.048 1.341-5.587 3.96-7.618 2.617-1.968 6.32-2.983 11.046-2.983 4.47 0 9.323.888 14.622 2.73 5.3 1.776 10.472 4.252 15.644 7.299l9.77-17.202a73.301 73.301 0 00-18.9-8.823 68.177 68.177 0 00-20.561-3.174c-5.3 0-10.28.762-14.942 2.222-4.47 1.333-8.62 3.491-12.196 6.41-3.448 2.73-6.194 6.221-8.11 10.093-1.979 3.936-2.937 8.443-2.937 13.52v.381c0 5.078 1.022 9.331 3.065 12.822 2.044 3.492 4.662 6.348 7.854 8.696 3.193 2.35 6.769 4.253 10.792 5.713 4.022 1.46 7.981 2.73 11.94 3.809l9.003 2.666c2.938.888 5.492 1.84 7.727 2.983 2.235 1.143 4.022 2.412 5.3 3.872 1.277 1.46 1.979 3.3 1.915 5.205v.38c.064 3.301-1.532 6.412-4.342 8.316-2.937 2.095-7.024 3.11-12.324 3.11a50.502 50.502 0 01-17.368-3.3c-6.385-2.412-12.387-5.65-17.815-9.712l-10.983 16.376a74.824 74.824 0 0022.094 11.807c7.534 2.602 15.452 3.935 23.498 3.999 5.555 0 10.79-.698 15.644-2.095 4.853-1.396 9.13-3.491 12.707-6.22 3.64-2.73 6.385-6.158 8.428-10.283 2.043-4.126 3.065-9.014 3.065-14.6v-.38c0-4.825-1.022-8.887-3.065-12.188-1.98-3.364-4.597-6.22-7.79-8.569zm-115.894 52.367h24.584V35.165h-24.584zm-14.239-71.029c0 39.609-30.905 70.204-75.602 70.204H94.588c8.748-5.776 16.028-13.457 21.264-22.407h22.029c29.883 0 49.422-19.804 49.422-47.416 0-27.611-19.475-47.86-49.422-47.86h-28.032v20.63c-4.086-5.078-8.94-9.522-14.367-13.203-3.384-2.285-6.896-4.19-10.663-5.84V0h53.062c44.697 0 75.602 30.214 75.602 69.822z" fill="#727373"/><path d="M36.616 40.783c-.499-.286-1.003.05-1.468-.04-.607-.117-.988.188-1.319.574-.405.465-.781.988-1.156 1.502-.282.376-.549.791-.346 1.306.237.059.479.078.682.188.203.108.371.267.559.425.697-.415 1.418-.425 2.135-.386.89.069 1.74-.029 2.575-.375.257-.1.544-.089.816-.129.178.197.331.386.484.573.276.336.805 0 .983.257.197.307.287.633.761.573 0-.188.02-.386-.005-.573-.03-.139-.104-.257-.163-.396h-.049c-.064.04-.133.08-.208.119-.005-.05-.015-.1-.015-.159.079.021.153.021.228.03.005-.01.02-.01.04-.03-.227-.236-.445-.493-.707-.789.251-.248.489-.446.687-.693.39-.474.257-1.027-.341-1.235-.321-.128-.687-.128-.993-.188-.089-.307-.079-.711-.237-.791-.455-.267-.563-.771-.929-1.077-.296-.267-.435-.652-.5-1.097.203-.129.391-.277.593-.366.415-.188.47-.484.391-.929-.391.247-.747.484-1.132.711-.222-.168-.4-.297-.627-.464-.188.553-.677.118-1.063.296.088.268.232.515.227.771-.01.237-.173.483-.287.771.544.099.999.178 1.507.258-.237.435-.396.79-.623 1.106-.094.148-.396.307-.484.257m3.172 1.711c.079-.237.306-.237.484-.208.154.039.272.208.52.396-.307.148-.484.306-.682.336-.193.038-.396-.327-.322-.524m-1.403-2.64c.069.029.138.139.222.237-.104.099-.173.207-.247.217-.173.04-.292-.079-.282-.237.005-.187.144-.276.307-.217m-2.565-6.216c.148.138.301.089.464 0-.01-.01-.01-.01-.02-.01h-.435c-.005 0-.005 0-.015.01m4.122 19.194c-.326-.415-.375-.859-.4-1.334-.005-.138.079-.336-.223-.415-.222.949-.39 1.858.391 2.648.415-.415.494-.552.232-.899m-1.25-3.608c-.292-.178-.539-.108-.801.01-.465.218-.568.583-.519 1.038.119-.218.307-.405.534-.277.747.436 1.167-.039 1.73-.464-.385-.109-.692-.178-.944-.307M55.95 64.525c-.267-.296-.307-.296-.909-.315.282.157.509.434.909.315" fill="#414D84"/></svg>
