<svg xmlns="http://www.w3.org/2000/svg" height="800" width="1200" viewBox="-44.017695 -17.556875 381.48669 105.34125"><path d="M38.3784 40.8994h5.9697V8.8256h-5.9697zm29.7617 0h-5.8809V27.4888c0-3.1187-2.1386-4.4557-4.366-4.4557-2.2277 0-4.3663 1.337-4.3663 4.4557v13.4106h-5.8814V17.9096h5.8814v2.0049c1.0243-1.5595 3.3412-2.6284 5.3911-2.6284 4.6777 0 9.2221 3.2075 9.2221 9.98v13.6333m14.8365-5.3023c1.1 0 2.3-.2 3.6-.8 1.3-.5 2.5-1.2 3.6-2v6.8c-1.2.7-2.5 1.2-4 1.5-1.5.3-3.1.5-4.9.5-4.6 0-8.3-1.4-11.1-4.3-2.9-2.9-4.3-6.6-4.3-11 0-5 1.5-9.1 4.4-12.3 2.9-3.2 7-4.8 12.4-4.8 1.4 0 2.8.2 4.1.5 1.4.3 2.5.8 3.3 1.2v7c-1.1-.8-2.3-1.5-3.4-1.9-1.2-.4-2.4-.7-3.6-.7-2.9 0-5.2.9-7 2.8-1.8 1.9-2.6 4.4-2.6 7.6 0 3.1.9 5.6 2.6 7.3 1.7 1.7 4 2.6 6.9 2.6m7.7524-9.5341v.0444h8.688v-.0444c-.1782-2.4059-1.6934-3.921-4.3217-3.921-2.629 0-4.1437 1.5596-4.3663 3.921zm0 4.9009v.1337c0 2.7173 1.5596 4.4995 4.3662 4.4995 2.0493 0 3.4752-.98 4.0542-2.539h5.9702c-.9355 4.8115-4.4106 7.8413-10.0244 7.8413-6.5942 0-10.2476-4.188-10.2476-10.5596v-2.9404c0-6.3711 3.6534-10.5591 10.2476-10.5591 6.5943 0 10.2475 4.188 10.2475 10.559v3.5646H90.729m23.8809 9.9355h-5.8809V17.9096h5.8809v2.4952c.6685-1.5152 2.6289-2.896 5.3466-2.896h1.7817v5.747h-2.7616c-2.2281 0-4.3667 1.337-4.3667 4.4556v13.188m9.9497-10.292h6.1479c.3575 2.6284 2.4063 4.3662 5.3913 4.3662 2.6287 0 4.4562-.98 4.4562-3.1186 0-1.7379-1.025-2.7179-3.2087-3.2969l-5.2575-1.4258c-4.7663-1.2925-7.1283-4.6338-7.1283-9.2227 0-6.2372 4.9008-9.0888 10.337-9.0888 6.2375 0 10.1138 3.6533 10.7813 8.955h-6.1475c-.535-2.0937-2.7188-3.0298-4.7238-3.0298-2.495 0-4.2762.9805-4.2762 3.1636 0 1.8267 1.425 2.6284 3.1187 3.0743l5.0788 1.3814c4.8112 1.2918 7.3962 4.2323 7.3962 9.4897 0 5.6137-3.6537 9.0444-10.4262 9.0444-6.8163 0-11.2272-4.0992-11.5392-10.292m36.2142 12.3414c-1.2475 3.475-1.6038 6.0146-5.7025 6.0146h-4.3663v-5.3018h2.45c1.0688 0 1.3813-.5347 1.56-1.025l.6675-1.871-8.1975-22.9897h6.1925l5.1238 14.6581 5.1237-14.6581h6.1937l-9.045 25.1729m8.51-9.9357h5.8813c.2675 1.7823 2.3613 2.584 4.2763 2.584 1.1587 0 2.8962-.2671 2.8962-1.7822 0-.9355-.6675-1.4698-2.0488-1.7818l-4.8125-1.0692c-2.495-.5791-5.6575-2.5396-5.6575-7.0396s4.0538-7.084 8.7763-7.084c4.6787 0 8.51 2.2276 8.9113 7.4405h-6.015c-.3125-1.4703-1.6038-2.1388-3.0738-2.1388-1.6937 0-2.6737.6685-2.7187 1.7379 0 .98.8025 1.4701 1.7825 1.6929l5.1687 1.1586c2.495.5791 5.5687 2.3164 5.5687 7.0835 0 5.124-4.1437 7.0845-8.955 7.0845-4.7675 0-9.7575-2.4506-9.98-7.8863m40.7938-6.9501v.0444h8.6875v-.0444c-.1775-2.4059-1.6925-3.921-4.3213-3.921-2.6287 0-4.1437 1.5596-4.3662 3.921zm0 4.9009v.1337c0 2.7173 1.56 4.4995 4.3662 4.4995 2.05 0 3.475-.98 4.055-2.539h5.97c-.9362 4.8115-4.4112 7.8413-10.025 7.8413-6.5937 0-10.2475-4.188-10.2475-10.5596v-2.9404c0-6.3711 3.6538-10.5591 10.2475-10.5591 6.5938 0 10.2475 4.188 10.2475 10.559v3.5646h-14.6137m38.2275 9.9355h-5.8812V27.4888c0-3.0743-2.1388-4.4557-4.2325-4.4557-2.0938 0-4.2325 1.3814-4.2325 4.4557v13.4106h-5.8813V17.9096h5.8813v1.916c1.1137-1.5595 3.2075-2.5395 5.2125-2.5395 2.4062 0 4.5887.8907 6.1937 3.0293 1.6475-2.0049 4.0088-3.0293 7.1725-3.0293 5.8363 0 10.1138 3.2519 10.1138 9.98v13.6333H256.77V27.4888c0-3.0743-2.1387-4.4557-4.2325-4.4557-2.0937 0-4.2325 1.3814-4.2325 4.4557v13.4106m16.575-7.8863h5.8812c.2663 1.7823 2.36 2.584 4.2763 2.584 1.1587 0 2.8963-.2671 2.8963-1.7822 0-.9355-.6688-1.4698-2.05-1.7818l-4.8113-1.0692c-2.495-.5791-5.6587-2.5396-5.6587-7.0396s4.055-7.084 8.7775-7.084c4.6775 0 8.51 2.2276 8.91 7.4405h-6.0138c-.3125-1.4703-1.6037-2.1388-3.075-2.1388-1.6925 0-2.6725.6685-2.7175 1.7379 0 .98.8025 1.4701 1.7825 1.6929l5.1675 1.1586c2.495.5791 5.57 2.3164 5.57 7.0835 0 5.124-4.1437 7.0845-8.955 7.0845-4.7675 0-9.7575-2.4506-9.98-7.8863" fill="#2e3191"/><path d="M95.3955 64.7822h2.2114V52.8359h-2.2114z" fill="#3aae9b"/><path d="M179.6362 64.7822h2.2115V52.8359h-2.2115z" fill="#25b4a9"/><path d="M289.0625 19.0073h1.0388c.3662 0 .61.183.61.5498 0 .3564-.2438.5395-.61.5395h-1.0388zm2.4937 3.5645l-1.0787-1.8335c.6012-.1222.9475-.5395.9475-1.1914 0-.774-.5-1.232-1.3238-1.232h-1.7325v4.2569h.6938V20.769h.6612l1.0588 1.8028zm-1.7712.8857c1.67 0 3.005-1.3442 3.005-3.0146 0-1.67-1.335-3.0143-3.005-3.0143s-3.0038 1.3443-3.0038 3.0143c0 1.6704 1.3338 3.0146 3.0038 3.0146zm0-6.6806c2.0262 0 3.6662 1.6401 3.6662 3.666 0 2.0267-1.64 3.6665-3.6662 3.6665-2.0263 0-3.6663-1.6398-3.6663-3.6665 0-2.0259 1.64-3.666 3.6663-3.666M8.8145 9.8564L0 5.4458v55.9609l17.6289 8.8208v-9.8574l-8.8145-4.4092V9.8564" fill="#2e3191"/><path d="M17.6289 60.37l8.8145 4.4132V8.8208L8.8144 0v9.8564l8.8145 4.4082v46.1055" fill="#25b4a9"/></svg>
