<svg xmlns="http://www.w3.org/2000/svg" viewBox="0 0 600 200" width="600" height="200">
  <defs>
    <linearGradient id="burgGrad" x1="0%" y1="0%" x2="100%" y2="100%">
      <stop offset="0%" style="stop-color:#ffffff;stop-opacity:1" />
      <stop offset="100%" style="stop-color:#e0e0e0;stop-opacity:1" />
    </linearGradient>
    <linearGradient id="tealGrad" x1="0%" y1="0%" x2="100%" y2="100%">
      <stop offset="0%" style="stop-color:#4dd8b2;stop-opacity:1" />
      <stop offset="100%" style="stop-color:#6eecd0;stop-opacity:1" />
    </linearGradient>
  </defs>

  <g transform="translate(30, 20)">
    <circle cx="80" cy="80" r="75" fill="none" stroke="#ffffff" stroke-width="3" opacity="0.15"/>
    <circle cx="80" cy="80" r="8" fill="url(#burgGrad)"/>
    <circle cx="80" cy="40" r="6" fill="url(#tealGrad)"/>
    <circle cx="115" cy="60" r="6" fill="#ffffff"/>
    <circle cx="115" cy="100" r="6" fill="url(#tealGrad)"/>
    <circle cx="80" cy="120" r="6" fill="#ffffff"/>
    <circle cx="45" cy="100" r="6" fill="url(#tealGrad)"/>
    <circle cx="45" cy="60" r="6" fill="#ffffff"/>
    <circle cx="80" cy="12" r="4" fill="#ffffff" opacity="0.4"/>
    <circle cx="140" cy="45" r="4" fill="#4dd8b2" opacity="0.4"/>
    <circle cx="140" cy="115" r="4" fill="#ffffff" opacity="0.4"/>
    <circle cx="80" cy="148" r="4" fill="#4dd8b2" opacity="0.4"/>
    <circle cx="20" cy="115" r="4" fill="#ffffff" opacity="0.4"/>
    <circle cx="20" cy="45" r="4" fill="#4dd8b2" opacity="0.4"/>
    <line x1="80" y1="72" x2="80" y2="46" stroke="#ffffff" stroke-width="1.5" opacity="0.3"/>
    <line x1="87" y1="75" x2="109" y2="63" stroke="#ffffff" stroke-width="1.5" opacity="0.3"/>
    <line x1="87" y1="85" x2="109" y2="97" stroke="#ffffff" stroke-width="1.5" opacity="0.3"/>
    <line x1="80" y1="88" x2="80" y2="114" stroke="#ffffff" stroke-width="1.5" opacity="0.3"/>
    <line x1="73" y1="85" x2="51" y2="97" stroke="#ffffff" stroke-width="1.5" opacity="0.3"/>
    <line x1="73" y1="75" x2="51" y2="63" stroke="#ffffff" stroke-width="1.5" opacity="0.3"/>
    <line x1="80" y1="34" x2="80" y2="16" stroke="#4dd8b2" stroke-width="1" opacity="0.25"/>
    <line x1="120" y1="57" x2="136" y2="48" stroke="#4dd8b2" stroke-width="1" opacity="0.25"/>
    <line x1="120" y1="103" x2="136" y2="112" stroke="#4dd8b2" stroke-width="1" opacity="0.25"/>
    <line x1="80" y1="126" x2="80" y2="144" stroke="#4dd8b2" stroke-width="1" opacity="0.25"/>
    <line x1="40" y1="103" x2="24" y2="112" stroke="#4dd8b2" stroke-width="1" opacity="0.25"/>
    <line x1="40" y1="57" x2="24" y2="48" stroke="#4dd8b2" stroke-width="1" opacity="0.25"/>
    <rect x="76" y="73" width="8" height="14" rx="1" fill="#1a1f2e"/>
    <rect x="73" y="76" width="14" height="8" rx="1" fill="#1a1f2e"/>
  </g>

  <g transform="translate(195, 35)">
    <rect x="0" y="0" width="48" height="24" rx="4" fill="url(#tealGrad)"/>
    <text x="24" y="17" font-family="Arial, sans-serif" font-size="14" font-weight="bold" fill="#1a1f2e" text-anchor="middle">620</text>
    <text x="58" y="18" font-family="Arial, sans-serif" font-size="16" font-weight="bold" fill="#ffffff" letter-spacing="0.5">
      Health Economics &amp; Artificial Intelligence Lab
    </text>
    <line x1="0" y1="34" x2="380" y2="34" stroke="#4dd8b2" stroke-width="2" opacity="0.4"/>
    <text x="0" y="56" font-family="Arial, sans-serif" font-size="13" fill="rgba(255,255,255,0.6)" letter-spacing="1">
      健康經濟與人工智慧實驗室
    </text>
    <text x="0" y="80" font-family="Arial, sans-serif" font-size="11" fill="rgba(255,255,255,0.4)" letter-spacing="0.5">
      National Taiwan University · Institute of Health Policy and Management
    </text>
    <text x="0" y="98" font-family="Arial, sans-serif" font-size="11" fill="rgba(255,255,255,0.4)" letter-spacing="0.5">
      國立臺灣大學 · 健康政策與管理研究所
    </text>
  </g>
</svg>
